<?xml version="1.0" encoding="utf-8"?>
<!-- Generator: Adobe Illustrator 21.0.0, SVG Export Plug-In . SVG Version: 6.00 Build 0)  -->
<svg version="1.1" id="Layer_2" xmlns="http://www.w3.org/2000/svg" xmlns:xlink="http://www.w3.org/1999/xlink" x="0px" y="0px"
	 viewBox="0 0 763.1 761" style="enable-background:new 0 0 763.1 761;" xml:space="preserve">
<style type="text/css">
	.st0{fill:none;}
	.st1{fill:#EFEFEF;}
</style>
<path class="st0" d="M192.9,376"/>
<line class="st1" x1="192.9" y1="376" x2="192.9" y2="379.6"/>
<g>
	<polygon class="st1" points="1.9,419.7 1.9,419.6 0,353.3 2.9,351.2 6.1,355.6 7.9,421.6 4.9,423.8 	"/>
</g>
<g>
	<polygon class="st1" points="15.8,281.6 15.8,281.5 39.1,219.4 42.5,218.5 43.8,223.8 20.7,285.6 17,286.5 	"/>
</g>
<g>
	<polygon class="st1" points="17.3,480 17.3,480 38.2,543 41.6,544 43.1,538.7 22.3,476.1 18.7,475.1 	"/>
</g>
<polygon class="st1" points="369.2,11.8 365.2,8.6 365.2,8.6 274.8,9.1 273.2,11.1 278.6,15.4 366.8,14.7 "/>
<polygon class="st1" points="150.1,73.1 152.2,68.5 152.2,68.5 233.4,28.7 235.7,29.7 232.8,36 153.5,74.7 "/>
<polygon class="st1" points="722.4,219.2 718.8,218.5 718.5,224.6 746.7,277.5 750.4,277.9 751,272.9 751,272.8 "/>
<polygon class="st1" points="111.3,116.4 110.9,112.6 105,114.2 62.3,156.3 63,160 68,159.1 68,159.1 "/>
<g>
	<polygon class="st1" points="218,719.5 218,719.5 158.7,689.7 158.2,686.2 163.6,685.5 222.6,715.1 223.1,718.8 	"/>
</g>
<polygon class="st1" points="756.4,422.4 753.3,418.3 753.3,418.3 756.8,328 758.9,326.4 763.1,332 759.4,420.1 "/>
<g>
	<polygon class="st1" points="592.1,699.1 592,699.1 535.6,734 532.4,732.6 534.6,727.6 590.7,692.9 594.1,694.4 	"/>
</g>
<polygon class="st1" points="644.2,660.6 644.1,655.5 644.1,655.5 699.8,584.3 702.3,584.2 702.5,591.1 648,660.5 "/>
<polygon class="st1" points="297.3,748 296,744.4 302,743.2 329.5,752.8 330.5,756.4 325.6,757.8 325.5,757.8 "/>
<polygon class="st1" points="82.6,609.5 78.9,610.2 80.8,616 102.6,635.3 106.2,634.4 105,629.4 105,629.4 "/>
<polygon class="st1" points="745.8,479.7 743.6,476.7 739.2,481 723.9,539 726.4,541.8 730.2,538.5 730.3,538.5 "/>
<polygon class="st1" points="426.7,755.4 424.8,758.6 430.4,761 459.2,757.2 461,753.9 456.4,751.5 456.4,751.5 "/>
<g>
	<polygon class="st1" points="690.4,157.7 690.4,157.7 644.6,109.7 641.1,110.2 642,115.6 687.5,163.4 691.2,162.8 	"/>
</g>
<polygon class="st1" points="491.7,15.1 488.2,11.4 488.2,11.4 398.5,0 396.6,1.7 401.4,6.8 489,17.7 "/>
<polygon class="st1" points="555,40 551.4,41.1 554.1,46.6 578.2,62.8 581.8,61.4 579.9,56.7 579.9,56.7 "/>
</svg>
