<?xml version="1.0" encoding="utf-8"?>
<!-- Generator: Adobe Illustrator 21.0.0, SVG Export Plug-In . SVG Version: 6.00 Build 0)  -->
<svg version="1.1" id="Layer_1" xmlns="http://www.w3.org/2000/svg" xmlns:xlink="http://www.w3.org/1999/xlink" x="0px" y="0px"
	 viewBox="0 0 767.5 155.2" style="enable-background:new 0 0 767.5 155.2;" xml:space="preserve">
<style type="text/css">
	.st0{fill:#EFEFEF;}
	.st1{fill:none;}
</style>
<g>
	<polygon class="st0" points="279.6,29 276.7,26.6 273.6,31.9 273.4,91.8 276.5,94 279.4,89.8 279.4,89.7 	"/>
	<rect id="_x3C_Slice_x3E__44_" x="253" class="st1" width="43" height="97"/>
</g>
<g>
	<polygon class="st0" points="279.5,102.5 276.6,100.1 273.5,105.4 273.5,134.5 276.6,136.6 279.5,132.4 279.5,132.4 	"/>
	<rect id="_x3C_Slice_x3E__43_" x="253" y="97" class="st1" width="43" height="52"/>
</g>
<g>
	<polygon class="st0" points="353.6,29 350.7,26.6 347.6,31.9 347.4,91.8 350.5,94 353.4,89.8 353.4,89.7 	"/>
	<rect id="_x3C_Slice_x3E__42_" x="327" class="st1" width="43" height="97"/>
</g>
<g>
	<polygon class="st0" points="353.5,102.5 350.6,100.1 347.5,105.4 347.5,134.5 350.6,136.6 353.5,132.4 353.5,132.4 	"/>
	<rect id="_x3C_Slice_x3E__41_" x="327" y="97" class="st1" width="43" height="52"/>
</g>
<g>
	<polygon class="st0" points="327.9,101.6 324.2,100.9 324.1,107.1 338.2,132.5 341.9,132.9 342.4,127.8 342.4,127.8 	"/>
	
		<rect id="_x3C_Slice_x3E__40_" x="312" y="96" transform="matrix(0.8743 -0.4854 0.4854 0.8743 -17.2936 177.2274)" class="st1" width="43" height="52"/>
</g>
<g>
	<g>
		<polygon class="st0" points="316.3,91.6 316.3,91.5 284.5,33.3 286.1,30.1 290.9,32.6 322.6,90.5 320.8,93.9 		"/>
	</g>
	
		<rect id="_x3C_Slice_x3E__39_" x="272" y="23" transform="matrix(0.454 -0.891 0.891 0.454 107.4682 299.3724)" class="st1" width="52" height="78"/>
</g>
<g>
	<polygon class="st0" points="116.9,95 116.9,89.9 116.9,89.8 174.3,20 176.8,20 176.8,26.9 120.7,95 	"/>
	<rect id="_x3C_Slice_x3E__38_" x="103" y="1" class="st1" width="78" height="97"/>
</g>
<g>
	<g>
		<polygon class="st0" points="171.7,142 171.7,142 116.9,104.6 116.9,101 122.4,101 176.8,138.3 176.8,142 		"/>
	</g>
	<rect id="_x3C_Slice_x3E__37_" x="103" y="98" class="st1" width="78" height="52"/>
</g>
<g>
	<polygon class="st0" points="242.1,95 242.1,89.9 242.1,89.8 184.7,20 182.2,20 182.2,26.9 238.3,95 	"/>
	<rect id="_x3C_Slice_x3E__34_" x="179" y="1" class="st1" width="76" height="97"/>
</g>
<g>
	<g>
		<polygon class="st0" points="187.3,142 187.3,142 242.1,104.6 242.1,101 236.7,101 182.2,138.3 182.2,142 		"/>
	</g>
	<rect id="_x3C_Slice_x3E__33_" x="179" y="98" class="st1" width="76" height="52"/>
</g>
<g>
	<polygon class="st0" points="427.6,29 424.7,26.6 421.6,31.9 421.4,91.8 424.5,94 427.4,89.8 427.4,89.7 	"/>
	<rect id="_x3C_Slice_x3E__60_" x="401" class="st1" width="43" height="97"/>
</g>
<g>
	<polygon class="st0" points="427.5,102.5 424.6,100.1 421.5,105.4 421.5,134.5 424.6,136.6 427.5,132.4 427.5,132.4 	"/>
	<rect id="_x3C_Slice_x3E__59_" x="401" y="97" class="st1" width="43" height="52"/>
</g>
<g>
	<polygon class="st0" points="431,19 428.6,21.9 433.9,25 463,25 465.1,21.9 460.9,19 460.9,19 	"/>
	<rect id="_x3C_Slice_x3E__52_" x="425.5" y="2.5" class="st1" width="52" height="43"/>
</g>
<g>
	<polygon class="st0" points="386,19 383.6,21.9 388.9,25 418,25 420.1,21.9 415.9,19 415.9,19 	"/>
	<rect id="_x3C_Slice_x3E__51_" x="380.5" y="2.5" class="st1" width="52" height="43"/>
</g>
<g>
	<polygon class="st0" points="717.6,29 714.7,26.6 711.6,31.9 711.4,91.8 714.5,94 717.4,89.8 717.4,89.7 	"/>
	<rect id="_x3C_Slice_x3E__64_" x="691" class="st1" width="43" height="97"/>
</g>
<g>
	<polygon class="st0" points="717.5,102.5 714.6,100.1 711.5,105.4 711.5,134.5 714.6,136.6 717.5,132.4 717.5,132.4 	"/>
	<rect id="_x3C_Slice_x3E__63_" x="691" y="97" class="st1" width="43" height="52"/>
</g>
<g>
	<polygon class="st0" points="721,19 718.6,21.9 723.9,25 753,25 755.1,21.9 750.9,19 750.9,19 	"/>
	<rect id="_x3C_Slice_x3E__58_" x="715.5" y="2.5" class="st1" width="52" height="43"/>
</g>
<g>
	<polygon class="st0" points="676,19 673.6,21.9 678.9,25 708,25 710.1,21.9 705.9,19 705.9,19 	"/>
	<rect id="_x3C_Slice_x3E__55_" x="670.5" y="2.5" class="st1" width="52" height="43"/>
</g>
<g>
	<polygon class="st0" points="13.9,96 13.9,90.9 13.9,90.8 71.3,21 73.8,21 73.8,27.9 17.7,96 	"/>
	<rect id="_x3C_Slice_x3E__46_" y="2" class="st1" width="78" height="97"/>
</g>
<g>
	<g>
		<polygon class="st0" points="68.7,143 68.7,143 13.9,105.6 13.9,102 19.4,102 73.8,139.3 73.8,143 		"/>
	</g>
	<rect id="_x3C_Slice_x3E__45_" y="99" class="st1" width="78" height="52"/>
</g>
<g>
	<polygon class="st0" points="587.9,94 587.9,88.9 587.9,88.8 645.3,19 647.8,19 647.8,25.9 591.7,94 	"/>
	<rect id="_x3C_Slice_x3E__54_" x="574" class="st1" width="78" height="97"/>
</g>
<g>
	<g>
		<polygon class="st0" points="642.7,141 642.7,141 587.9,103.6 587.9,100 593.4,100 647.8,137.3 647.8,141 		"/>
	</g>
	<rect id="_x3C_Slice_x3E__53_" x="574" y="97" class="st1" width="78" height="52"/>
</g>
<g>
	<polygon class="st0" points="504.6,29 501.7,26.6 498.6,31.9 498.4,91.8 501.5,94 504.4,89.8 504.4,89.7 	"/>
	<rect id="_x3C_Slice_x3E__20_" x="478" class="st1" width="43" height="97"/>
</g>
<g>
	<polygon class="st0" points="504.5,102.5 501.6,100.1 498.5,105.4 498.5,134.5 501.6,136.6 504.5,132.4 504.5,132.4 	"/>
	<rect id="_x3C_Slice_x3E__19_" x="478" y="97" class="st1" width="43" height="52"/>
</g>
<g>
	<polygon class="st0" points="557.6,29 554.7,26.6 551.6,31.9 551.4,91.8 554.5,94 557.4,89.8 557.4,89.7 	"/>
	<rect id="_x3C_Slice_x3E__18_" x="531" class="st1" width="43" height="97"/>
</g>
<g>
	<polygon class="st0" points="557.5,102.5 554.6,100.1 551.5,105.4 551.5,134.5 554.6,136.6 557.5,132.4 557.5,132.4 	"/>
	<rect id="_x3C_Slice_x3E__17_" x="531" y="97" class="st1" width="43" height="52"/>
</g>
<g>
	<polygon class="st0" points="512,86 509.6,88.9 514.9,92 544,92 546.1,88.9 541.9,86 541.9,86 	"/>
	<rect id="_x3C_Slice_x3E__15_" x="506.5" y="69.5" class="st1" width="52" height="43"/>
</g>
<g>
	<polygon class="st0" points="512,19 509.6,21.9 514.9,25 544,25 546.1,21.9 541.9,19 541.9,19 	"/>
	<rect id="_x3C_Slice_x3E__14_" x="506.5" y="2.5" class="st1" width="52" height="43"/>
</g>
</svg>
