<?xml version="1.0" encoding="utf-8"?>
<!-- Generator: Adobe Illustrator 21.0.0, SVG Export Plug-In . SVG Version: 6.00 Build 0)  -->
<svg version="1.1" id="Layer_2" xmlns="http://www.w3.org/2000/svg" xmlns:xlink="http://www.w3.org/1999/xlink" x="0px" y="0px"
	 viewBox="0 0 208.6 137.4" style="enable-background:new 0 0 208.6 137.4;" xml:space="preserve">
<style type="text/css">
	.st0{fill:#E5E5E5;}
	.st1{fill:#EFEFEF;}
</style>
<path class="st0" d="M41.1,31.6v10.6h3.8c0.5,0,0.9,0.1,1.1,0.3c0.2,0.2,0.3,0.4,0.3,0.7c0,0.3-0.1,0.5-0.3,0.7
	c-0.2,0.2-0.6,0.3-1.1,0.3h-8.5c-0.5,0-0.8-0.1-1-0.3c-0.2-0.2-0.3-0.4-0.3-0.7c0-0.3,0.1-0.6,0.3-0.7c0.2-0.2,0.6-0.3,1-0.3H39
	V17.9h-2.7c-0.5,0-0.8-0.1-1-0.3c-0.2-0.2-0.3-0.4-0.3-0.7s0.1-0.6,0.3-0.7c0.2-0.2,0.6-0.3,1-0.3h12.3c2.5,0,4.7,0.8,6.4,2.4
	c1.7,1.6,2.6,3.4,2.6,5.4c0,1.5-0.5,2.8-1.6,4.1s-2.9,2.4-5.4,3.2c1.5,1,2.7,2.1,3.7,3.4c1,1.3,2.7,3.8,5,7.8h1.6
	c0.5,0,0.8,0.1,1,0.3c0.2,0.2,0.3,0.4,0.3,0.7c0,0.3-0.1,0.5-0.3,0.7c-0.2,0.2-0.6,0.3-1,0.3h-2.7c-2.5-4.5-4.5-7.5-5.9-9.1
	c-1.4-1.5-3-2.7-4.8-3.6H41.1z M41.1,29.5h5.6c1.8,0,3.4-0.3,4.8-1c1.4-0.6,2.5-1.4,3.2-2.3c0.7-0.9,1-1.8,1-2.7
	c0-1.4-0.7-2.7-2-3.9c-1.4-1.2-3-1.8-5-1.8h-7.5V29.5z"/>
<path class="st0" d="M84.2,34.7H70.8l-2.7,7.4H72c0.5,0,0.8,0.1,1,0.3c0.2,0.2,0.3,0.4,0.3,0.7c0,0.3-0.1,0.5-0.3,0.7
	c-0.2,0.2-0.6,0.3-1,0.3h-7.6c-0.5,0-0.8-0.1-1-0.3c-0.2-0.2-0.3-0.4-0.3-0.7c0-0.3,0.1-0.6,0.3-0.7c0.2-0.2,0.6-0.3,1-0.3H66
	l9-24.3h-6c-0.5,0-0.8-0.1-1-0.3c-0.2-0.2-0.3-0.4-0.3-0.7s0.1-0.6,0.3-0.7c0.2-0.2,0.6-0.3,1-0.3h10.3l9.9,26.3h1.6
	c0.5,0,0.8,0.1,1,0.3c0.2,0.2,0.3,0.4,0.3,0.7c0,0.3-0.1,0.5-0.3,0.7c-0.2,0.2-0.6,0.3-1,0.3h-7.6c-0.5,0-0.9-0.1-1.1-0.3
	c-0.2-0.2-0.3-0.4-0.3-0.7c0-0.3,0.1-0.6,0.3-0.7c0.2-0.2,0.6-0.3,1.1-0.3H87L84.2,34.7z M83.4,32.7l-5.6-14.8h-0.8l-5.5,14.8H83.4z
	"/>
<path class="st0" d="M102.9,32.6v9.6h7c0.5,0,0.8,0.1,1,0.3c0.2,0.2,0.3,0.4,0.3,0.7c0,0.3-0.1,0.5-0.3,0.7c-0.2,0.2-0.6,0.3-1,0.3
	H98.1c-0.5,0-0.8-0.1-1-0.3c-0.2-0.2-0.3-0.4-0.3-0.7c0-0.3,0.1-0.6,0.3-0.7c0.2-0.2,0.6-0.3,1-0.3h2.7V17.9h-2.7
	c-0.5,0-0.8-0.1-1-0.3c-0.2-0.2-0.3-0.4-0.3-0.7s0.1-0.6,0.3-0.7c0.2-0.2,0.6-0.3,1-0.3H110c2.8,0,5.1,0.8,6.9,2.5
	c1.8,1.6,2.7,3.6,2.7,5.8c0,1.3-0.3,2.5-0.9,3.5c-0.6,1.1-1.3,1.9-2.1,2.5c-1.2,0.9-2.5,1.6-3.8,2c-0.9,0.3-2.1,0.5-3.5,0.5H102.9z
	 M102.9,30.6h6.5c1.5,0,2.9-0.3,4.2-1c1.3-0.7,2.3-1.5,2.9-2.5s0.9-2,0.9-3c0-1.6-0.7-3-2.1-4.3c-1.4-1.3-3.1-1.9-5.2-1.9h-7.3V30.6
	z"/>
<path class="st0" d="M144,30.5h-13.5v11.7h2.7c0.5,0,0.8,0.1,1,0.3c0.2,0.2,0.3,0.4,0.3,0.7c0,0.3-0.1,0.5-0.3,0.7
	c-0.2,0.2-0.6,0.3-1,0.3h-7.1c-0.5,0-0.8-0.1-1-0.3c-0.2-0.2-0.3-0.4-0.3-0.7c0-0.3,0.1-0.6,0.3-0.7c0.2-0.2,0.6-0.3,1-0.3h2.3V17.9
	h-1.3c-0.5,0-0.9-0.1-1.1-0.3c-0.2-0.2-0.3-0.4-0.3-0.7s0.1-0.6,0.3-0.7c0.2-0.2,0.6-0.3,1.1-0.3h6c0.5,0,0.8,0.1,1,0.3
	c0.2,0.2,0.3,0.4,0.3,0.7s-0.1,0.6-0.3,0.7c-0.2,0.2-0.6,0.3-1,0.3h-2.7v10.6H144V17.9h-2.7c-0.5,0-0.8-0.1-1-0.3
	c-0.2-0.2-0.3-0.4-0.3-0.7s0.1-0.6,0.3-0.7c0.2-0.2,0.6-0.3,1.1-0.3h6c0.5,0,0.9,0.1,1.1,0.3c0.2,0.2,0.3,0.4,0.3,0.7
	s-0.1,0.6-0.3,0.7c-0.2,0.2-0.6,0.3-1.1,0.3h-1.3v24.3h2.3c0.5,0,0.8,0.1,1,0.3c0.2,0.2,0.3,0.4,0.3,0.7c0,0.3-0.1,0.5-0.3,0.7
	c-0.2,0.2-0.6,0.3-1,0.3h-7.1c-0.5,0-0.8-0.1-1-0.3c-0.2-0.2-0.3-0.4-0.3-0.7c0-0.3,0.1-0.6,0.3-0.7c0.2-0.2,0.6-0.3,1.1-0.3h2.7
	V30.5z"/>
<path class="st0" d="M168,17.9v24.3h7c0.5,0,0.8,0.1,1,0.3c0.2,0.2,0.3,0.4,0.3,0.7c0,0.3-0.1,0.5-0.3,0.7c-0.2,0.2-0.6,0.3-1,0.3
	h-16c-0.5,0-0.8-0.1-1-0.3c-0.2-0.2-0.3-0.4-0.3-0.7c0-0.3,0.1-0.6,0.3-0.7c0.2-0.2,0.6-0.3,1-0.3h7V17.9h-7c-0.5,0-0.8-0.1-1-0.3
	c-0.2-0.2-0.3-0.4-0.3-0.7s0.1-0.6,0.3-0.7c0.2-0.2,0.6-0.3,1-0.3h16c0.5,0,0.8,0.1,1,0.3c0.2,0.2,0.3,0.4,0.3,0.7s-0.1,0.6-0.3,0.7
	c-0.2,0.2-0.6,0.3-1,0.3H168z"/>
<path class="st0" d="M205.7,18.6v-1.4c0-0.5,0.1-0.8,0.3-1c0.2-0.2,0.4-0.3,0.7-0.3c0.3,0,0.6,0.1,0.7,0.3c0.2,0.2,0.3,0.6,0.3,1
	v5.7c0,0.5-0.1,0.9-0.3,1.1c-0.2,0.2-0.4,0.3-0.7,0.3c-0.3,0-0.5-0.1-0.7-0.3c-0.2-0.2-0.3-0.5-0.3-0.9c-0.1-1.4-0.8-2.6-2.2-3.6
	c-1.9-1.4-4-2.2-6.4-2.2c-1.6,0-3,0.3-4.4,1c-1,0.5-1.9,1.1-2.5,1.8c-1.1,1.3-1.9,2.7-2.5,4.2c-0.5,1.1-0.7,2.4-0.7,3.8v3.6
	c0,3,1.1,5.7,3.3,7.9c2.2,2.2,4.8,3.4,7.7,3.4c1.7,0,3.3-0.4,4.7-1.1c1.4-0.8,2.7-1.9,4-3.4c0.3-0.3,0.6-0.5,0.9-0.5
	c0.3,0,0.5,0.1,0.7,0.3c0.2,0.2,0.3,0.4,0.3,0.7c0,0.4-0.3,0.9-1,1.7c-1.3,1.5-2.8,2.6-4.5,3.4s-3.3,1.1-5,1.1c-1.5,0-3-0.3-4.5-0.8
	c-1.2-0.4-2.1-0.9-2.9-1.5c-0.8-0.6-1.7-1.6-2.8-2.9c-1.1-1.4-1.9-2.7-2.3-3.8c-0.4-1.2-0.6-2.5-0.6-3.9v-4.1c0-2,0.5-4.1,1.6-6.1
	c1.1-2.1,2.5-3.7,4.4-4.8c1.9-1.1,3.9-1.7,6.1-1.7C200.4,15.2,203.3,16.3,205.7,18.6z"/>
<path class="st0" d="M72.4,90.2l-1.6-2.4C69.4,90,67.5,91,65.2,91c-1.9,0-3.6-0.8-5.1-2.3c-1.5-1.5-2.2-3.4-2.2-5.6
	c0-1.7,0.5-3.2,1.5-4.6c1-1.3,2.4-2.2,4.1-2.8c-1.2-1.9-1.9-3.2-2.1-3.8c-0.2-0.6-0.4-1.2-0.4-1.9c0-1.6,0.6-3,1.8-4.2
	c1.2-1.2,2.7-1.8,4.4-1.8c0.5,0,1.1,0.1,1.6,0.2c0.5,0.2,1.1,0.4,1.6,0.8c0.7-0.4,1.1-0.5,1.3-0.5c0.3,0,0.5,0.1,0.7,0.3
	c0.2,0.2,0.3,0.4,0.3,0.7c0,0.2-0.1,0.4-0.2,0.5c-0.1,0.2-0.3,0.3-0.7,0.5l-1.6,0.8c-0.5-0.5-1-0.8-1.5-1c-0.5-0.2-1.1-0.3-1.6-0.3
	c-1.1,0-2.1,0.4-2.9,1.2c-0.8,0.8-1.2,1.7-1.2,2.8c0,1.1,0.7,2.7,2.2,5l5.6,9c1-1.9,1.8-4,2.3-6.5h2c0.5,0,0.8,0.1,1,0.3
	c0.2,0.2,0.3,0.4,0.3,0.7c0,0.2-0.1,0.4-0.2,0.6c-0.1,0.2-0.3,0.3-0.4,0.4c-0.2,0.1-0.6,0.1-1.2,0.1c-0.8,2.7-1.7,4.9-2.7,6.4
	l1.4,2.1h1.7c0.5,0,0.8,0.1,1,0.3c0.2,0.2,0.3,0.4,0.3,0.7c0,0.3-0.1,0.5-0.3,0.7c-0.2,0.2-0.6,0.3-1,0.3H72.4z M64.3,77.6
	c-1.4,0.3-2.4,1-3.2,2c-0.8,1-1.2,2.2-1.2,3.6c0,1.6,0.5,3,1.6,4.2s2.3,1.7,3.6,1.7c1.8,0,3.3-1,4.5-3.1L64.3,77.6z"/>
<path class="st0" d="M119.2,90.2H116l-5.8-20.2l-5.7,20.2h-3.2l-3-26.3h-0.8c-0.5,0-0.8-0.1-1-0.3c-0.2-0.2-0.3-0.4-0.3-0.7
	s0.1-0.6,0.3-0.7c0.2-0.2,0.6-0.3,1-0.3h7.6c0.5,0,0.9,0.1,1.1,0.3c0.2,0.2,0.3,0.4,0.3,0.7s-0.1,0.6-0.3,0.7
	c-0.2,0.2-0.6,0.3-1.1,0.3h-4.8l2.7,24l5.5-19.8h3.1l5.7,19.8l2.6-24h-4.8c-0.5,0-0.8-0.1-1-0.3c-0.2-0.2-0.3-0.4-0.3-0.7
	s0.1-0.6,0.3-0.7c0.2-0.2,0.6-0.3,1-0.3h7.5c0.5,0,0.9,0.1,1.1,0.3c0.2,0.2,0.3,0.4,0.3,0.7s-0.1,0.6-0.3,0.7
	c-0.2,0.2-0.6,0.3-1.1,0.3H122L119.2,90.2z"/>
<path class="st0" d="M133.4,76.5v11.7h15.7v-6c0-0.5,0.1-0.8,0.3-1c0.2-0.2,0.4-0.3,0.7-0.3c0.3,0,0.6,0.1,0.7,0.3
	c0.2,0.2,0.3,0.6,0.3,1v8.1h-22.5c-0.5,0-0.8-0.1-1-0.3c-0.2-0.2-0.3-0.4-0.3-0.7c0-0.3,0.1-0.6,0.3-0.7c0.2-0.2,0.6-0.3,1-0.3h2.7
	V63.9h-2.7c-0.5,0-0.8-0.1-1-0.3c-0.2-0.2-0.3-0.4-0.3-0.7s0.1-0.6,0.3-0.7c0.2-0.2,0.6-0.3,1-0.3h21.4v7c0,0.5-0.1,0.8-0.3,1
	c-0.2,0.2-0.4,0.3-0.7,0.3c-0.3,0-0.6-0.1-0.7-0.3c-0.2-0.2-0.3-0.6-0.3-1v-5h-14.6v10.6h7.3v-2.3c0-0.5,0.1-0.8,0.3-1
	c0.2-0.2,0.4-0.3,0.8-0.3c0.3,0,0.5,0.1,0.7,0.3c0.2,0.2,0.3,0.6,0.3,1v6.6c0,0.5-0.1,0.8-0.3,1c-0.2,0.2-0.4,0.3-0.7,0.3
	c-0.3,0-0.6-0.1-0.8-0.3c-0.2-0.2-0.3-0.6-0.3-1v-2.3H133.4z"/>
<path class="st0" d="M161.2,88.2V63.9h-2.7c-0.5,0-0.8-0.1-1-0.3c-0.2-0.2-0.3-0.4-0.3-0.7s0.1-0.6,0.3-0.7c0.2-0.2,0.6-0.3,1-0.3
	h12.8c2.5,0,4.6,0.7,6.2,2.2c1.6,1.5,2.4,3.2,2.4,5.2c0,2.5-1.3,4.5-4,6c2.1,0.8,3.7,1.8,4.7,3c1,1.3,1.5,2.7,1.5,4.2
	c0,1.4-0.3,2.6-1,3.7c-0.6,1.1-1.6,2.1-3,2.9c-1.3,0.8-2.8,1.2-4.4,1.2h-15.2c-0.5,0-0.8-0.1-1-0.3c-0.2-0.2-0.3-0.4-0.3-0.7
	c0-0.3,0.1-0.6,0.3-0.7c0.2-0.2,0.6-0.3,1-0.3H161.2z M163.2,74.5h7.2c1.5,0,2.9-0.3,4.2-0.8c1-0.5,1.8-1.1,2.3-2
	c0.5-0.9,0.8-1.7,0.8-2.6c0-1.3-0.6-2.5-1.8-3.5c-1.2-1.1-2.8-1.6-4.7-1.6h-8.1V74.5z M163.2,88.2h10.3c1.3,0,2.5-0.3,3.4-0.9
	c1-0.6,1.7-1.3,2.2-2.2c0.5-0.9,0.8-1.7,0.8-2.7c0-1-0.4-2-1.1-3s-1.7-1.7-3-2.2c-1.3-0.5-3-0.8-5.3-0.8h-7.3V88.2z"/>
<g>
	<path class="st0" d="M62.1,122.9v11.7h15.7v-6c0-0.5,0.1-0.8,0.3-1c0.2-0.2,0.4-0.3,0.7-0.3c0.3,0,0.6,0.1,0.7,0.3
		c0.2,0.2,0.3,0.6,0.3,1v8.1H57.4c-0.5,0-0.8-0.1-1-0.3c-0.2-0.2-0.3-0.4-0.3-0.7c0-0.3,0.1-0.6,0.3-0.7c0.2-0.2,0.6-0.3,1-0.3h2.7
		v-24.3h-2.7c-0.5,0-0.8-0.1-1-0.3c-0.2-0.2-0.3-0.4-0.3-0.7s0.1-0.6,0.3-0.7c0.2-0.2,0.6-0.3,1-0.3h21.4v7c0,0.5-0.1,0.8-0.3,1
		c-0.2,0.2-0.4,0.3-0.7,0.3c-0.3,0-0.6-0.1-0.7-0.3c-0.2-0.2-0.3-0.6-0.3-1v-5H62.1v10.6h7.3v-2.3c0-0.5,0.1-0.8,0.3-1
		c0.2-0.2,0.4-0.3,0.8-0.3c0.3,0,0.5,0.1,0.7,0.3c0.2,0.2,0.3,0.6,0.3,1v6.6c0,0.5-0.1,0.8-0.3,1c-0.2,0.2-0.4,0.3-0.7,0.3
		c-0.3,0-0.6-0.1-0.8-0.3c-0.2-0.2-0.3-0.6-0.3-1v-2.3H62.1z"/>
	<path class="st0" d="M105.9,110.3v-0.7c0-0.5,0.1-0.8,0.3-1c0.2-0.2,0.4-0.3,0.7-0.3c0.3,0,0.6,0.1,0.7,0.3c0.2,0.2,0.3,0.6,0.3,1
		v5.2c0,0.5-0.1,0.8-0.3,1c-0.2,0.2-0.4,0.3-0.7,0.3c-0.3,0-0.5-0.1-0.7-0.3c-0.2-0.2-0.3-0.5-0.3-0.9c-0.1-1.4-0.8-2.6-2.1-3.7
		c-1.3-1.1-3-1.6-5.2-1.6c-2.2,0-4,0.6-5.4,1.7c-1.3,1.2-2,2.5-2,4.1c0,0.8,0.2,1.5,0.6,2.2c0.4,0.7,0.9,1.2,1.5,1.6
		c0.6,0.4,1.3,0.7,2.1,1c0.8,0.3,2,0.5,3.6,0.8c2.8,0.5,4.7,0.9,5.7,1.4c1.4,0.6,2.5,1.5,3.2,2.6c0.7,1.1,1.1,2.4,1.1,4
		c0,2.3-0.9,4.3-2.8,6s-4.4,2.5-7.5,2.5c-3.5,0-6.4-1.1-8.5-3.3v1.2c0,0.5-0.1,0.8-0.3,1c-0.2,0.2-0.4,0.3-0.7,0.3
		c-0.3,0-0.5-0.1-0.7-0.3c-0.2-0.2-0.3-0.6-0.3-1v-5.6c0-0.5,0.1-0.9,0.3-1.1s0.4-0.3,0.7-0.3c0.3,0,0.5,0.1,0.7,0.3
		c0.2,0.2,0.3,0.5,0.3,0.9c0.1,1.5,0.9,2.8,2.4,4.1c1.5,1.2,3.5,1.8,6.1,1.8c2.6,0,4.6-0.6,6.1-1.9c1.5-1.3,2.2-2.8,2.2-4.5
		c0-1.1-0.3-2-0.8-2.9c-0.6-0.8-1.4-1.5-2.5-2c-0.8-0.3-2.4-0.7-4.9-1.1c-3.4-0.6-5.8-1.4-7.3-2.6s-2.2-2.8-2.2-5
		c0-2.1,0.9-4,2.6-5.5s4-2.3,6.8-2.3C101.4,107.6,103.8,108.5,105.9,110.3z"/>
	<path class="st0" d="M129.4,110.3v24.3h7c0.5,0,0.8,0.1,1,0.3c0.2,0.2,0.3,0.4,0.3,0.7c0,0.3-0.1,0.5-0.3,0.7
		c-0.2,0.2-0.6,0.3-1,0.3h-16c-0.5,0-0.8-0.1-1-0.3c-0.2-0.2-0.3-0.4-0.3-0.7c0-0.3,0.1-0.6,0.3-0.7c0.2-0.2,0.6-0.3,1-0.3h7v-24.3
		h-7c-0.5,0-0.8-0.1-1-0.3c-0.2-0.2-0.3-0.4-0.3-0.7s0.1-0.6,0.3-0.7c0.2-0.2,0.6-0.3,1-0.3h16c0.5,0,0.8,0.1,1,0.3
		c0.2,0.2,0.3,0.4,0.3,0.7s-0.1,0.6-0.3,0.7c-0.2,0.2-0.6,0.3-1,0.3H129.4z"/>
	<path class="st0" d="M169.3,126.1v8.7c-1.6,0.9-3.1,1.5-4.6,1.9c-1.5,0.4-3.1,0.7-4.6,0.7c-2.2,0-4.1-0.3-5.8-1
		c-1.7-0.6-3.1-1.6-4.2-2.7c-1.1-1.2-2-2.5-2.7-3.9c-0.6-1.4-1-3.3-1-5.5v-3.7c0-2.2,0.6-4.4,1.7-6.5c1.1-2.1,2.6-3.7,4.5-4.8
		c1.9-1.1,4-1.7,6.3-1.7c3.3,0,6.1,0.9,8.3,2.7c0-0.8,0-1.3,0.1-1.4c0.1-0.2,0.2-0.3,0.4-0.4c0.2-0.1,0.4-0.2,0.6-0.2
		c0.3,0,0.5,0.1,0.7,0.3c0.2,0.2,0.3,0.6,0.3,1v4.6c0,0.5-0.1,0.9-0.3,1.1c-0.2,0.2-0.4,0.3-0.7,0.3c-0.3,0-0.5-0.1-0.7-0.3
		c-0.2-0.2-0.3-0.5-0.3-1c-0.1-1.4-1-2.5-2.7-3.4c-1.7-0.9-3.5-1.3-5.5-1.3c-1.9,0-3.6,0.4-5.1,1.2c-1.5,0.8-2.9,2.4-4.2,4.7
		c-0.9,1.5-1.3,3.2-1.3,5.1v3.7c0,3.4,1,6.1,3.1,8.1s4.9,3,8.6,3c1.2,0,2.4-0.1,3.4-0.4c1.1-0.3,2.3-0.7,3.7-1.4v-7.5h-7
		c-0.5,0-0.8-0.1-1-0.3s-0.3-0.4-0.3-0.7c0-0.3,0.1-0.6,0.3-0.8c0.2-0.2,0.6-0.3,1-0.3l9.8,0c0.5,0,0.8,0.1,1,0.3
		c0.2,0.2,0.3,0.4,0.3,0.7c0,0.2-0.1,0.4-0.2,0.6c-0.1,0.2-0.3,0.3-0.4,0.4C170.6,126.1,170.1,126.1,169.3,126.1z"/>
	<path class="st0" d="M198,136.6h-2.6l-15-25.4v23.4h3.8c0.5,0,0.9,0.1,1.1,0.3c0.2,0.2,0.3,0.4,0.3,0.7c0,0.3-0.1,0.5-0.3,0.7
		c-0.2,0.2-0.6,0.3-1.1,0.3h-7.5c-0.5,0-0.9-0.1-1.1-0.3c-0.2-0.2-0.3-0.4-0.3-0.7c0-0.3,0.1-0.6,0.3-0.7c0.2-0.2,0.6-0.3,1.1-0.3
		h1.7v-24.3h-2.7c-0.5,0-0.8-0.1-1-0.3c-0.2-0.2-0.3-0.4-0.3-0.7s0.1-0.6,0.3-0.7c0.2-0.2,0.6-0.3,1-0.3h5.3l15,25.4v-23.4h-3.8
		c-0.5,0-0.8-0.1-1-0.3c-0.2-0.2-0.3-0.4-0.3-0.7s0.1-0.6,0.3-0.7c0.2-0.2,0.6-0.3,1.1-0.3h7.5c0.5,0,0.8,0.1,1,0.3
		c0.2,0.2,0.3,0.4,0.3,0.7s-0.1,0.6-0.3,0.7c-0.2,0.2-0.6,0.3-1,0.3H198V136.6z"/>
</g>
<g>
	<g>
		<polygon class="st1" points="27.7,137.1 27.7,137 47.5,123.5 47.5,122.2 45.6,122.2 25.8,135.7 25.8,137.1 		"/>
	</g>
	<polygon class="st1" points="47.5,120 47.5,118.2 47.5,118.2 26.8,92.9 25.8,92.9 25.8,95.4 46.2,120 	"/>
	<polygon class="st1" points="23.8,123.1 22.8,122.2 21.6,124.1 21.6,134.7 22.7,135.5 23.8,133.9 23.8,133.9 	"/>
</g>
<g>
	<g>
		<polygon class="st1" points="19.8,44.1 19.8,44 0,30.5 0,29.3 2,29.3 21.6,42.7 21.6,44.1 		"/>
	</g>
	<polygon class="st1" points="0,27.1 0,25.2 0,25.2 20.7,0 21.6,0 21.6,2.5 1.4,27.1 	"/>
	<polygon class="st1" points="23.7,30.1 24.7,29.3 25.8,31.2 25.8,41.7 24.7,42.5 23.7,40.9 23.7,40.9 	"/>
</g>
</svg>
