<?xml version="1.0" encoding="utf-8"?>
<!-- Generator: Adobe Illustrator 21.0.0, SVG Export Plug-In . SVG Version: 6.00 Build 0)  -->
<svg version="1.1" id="Layer_1" xmlns="http://www.w3.org/2000/svg" xmlns:xlink="http://www.w3.org/1999/xlink" x="0px" y="0px"
	 viewBox="0 0 404 153.5" style="enable-background:new 0 0 404 153.5;" xml:space="preserve">
<style type="text/css">
	.st0{fill:#EFEFEF;}
	.st1{fill:none;}
</style>
<g>
	<polygon class="st0" points="26.6,29 23.7,26.6 20.6,31.9 20.4,91.8 23.5,94 26.4,89.8 26.4,89.7 	"/>
	<rect id="_x3C_Slice_x3E__36_" class="st1" width="43" height="97"/>
</g>
<g>
	<polygon class="st0" points="26.5,102.5 23.6,100.1 20.5,105.4 20.5,134.5 23.6,136.6 26.5,132.4 26.5,132.4 	"/>
	<rect id="_x3C_Slice_x3E__35_" y="97" class="st1" width="43" height="52"/>
</g>
<g>
	<polygon class="st0" points="71.6,29 68.7,26.6 65.6,31.9 65.4,91.8 68.5,94 71.4,89.8 71.4,89.7 	"/>
	<rect id="_x3C_Slice_x3E__50_" x="45" class="st1" width="43" height="97"/>
</g>
<g>
	<polygon class="st0" points="71.5,102.5 68.6,100.1 65.5,105.4 65.5,134.5 68.6,136.6 71.5,132.4 71.5,132.4 	"/>
	<rect id="_x3C_Slice_x3E__49_" x="45" y="97" class="st1" width="43" height="52"/>
</g>
<g>
	<polygon class="st0" points="150.6,29 147.7,26.6 144.6,31.9 144.4,91.8 147.5,94 150.4,89.8 150.4,89.7 	"/>
	<rect id="_x3C_Slice_x3E__48_" x="124" class="st1" width="43" height="97"/>
</g>
<g>
	<polygon class="st0" points="150.5,102.5 147.6,100.1 144.5,105.4 144.5,134.5 147.6,136.6 150.5,132.4 150.5,132.4 	"/>
	<rect id="_x3C_Slice_x3E__47_" x="124" y="97" class="st1" width="43" height="52"/>
</g>
<g>
	<polygon class="st0" points="120.6,100 116.9,99.6 117.1,105.7 132.8,130.2 136.6,130.3 136.8,125.2 136.8,125.2 	"/>
	
		<rect id="_x3C_Slice_x3E__32_" x="106" y="94" transform="matrix(0.8406 -0.5417 0.5417 0.8406 -44.6762 88.1942)" class="st1" width="43" height="52"/>
</g>
<g>
	<polygon class="st0" points="197.6,29 194.7,26.6 191.6,31.9 191.4,91.8 194.5,94 197.4,89.8 197.4,89.7 	"/>
	<rect id="_x3C_Slice_x3E__62_" x="171" class="st1" width="43" height="97"/>
</g>
<g>
	<polygon class="st0" points="197.5,102.5 194.6,100.1 191.5,105.4 191.5,134.5 194.6,136.6 197.5,132.4 197.5,132.4 	"/>
	<rect id="_x3C_Slice_x3E__61_" x="171" y="97" class="st1" width="43" height="52"/>
</g>
<g>
	<polygon class="st0" points="208,86 205.6,88.9 210.9,92 240,92 242.1,88.9 237.9,86 237.9,86 	"/>
	<rect id="_x3C_Slice_x3E__57_" x="202.5" y="69.5" class="st1" width="52" height="43"/>
</g>
<g>
	<polygon class="st0" points="207,25 204.6,27.9 209.9,31 239,31 241.1,27.9 236.9,25 236.9,25 	"/>
	<rect id="_x3C_Slice_x3E__56_" x="201.5" y="8.5" class="st1" width="52" height="43"/>
</g>
<g>
	<polygon class="st0" points="265.9,94 265.9,88.9 265.9,88.8 323.3,19 325.8,19 325.8,25.9 269.7,94 	"/>
	<rect id="_x3C_Slice_x3E__78_" x="252" class="st1" width="78" height="97"/>
</g>
<g>
	<g>
		<polygon class="st0" points="320.7,141 320.7,141 265.9,103.6 265.9,100 271.4,100 325.8,137.3 325.8,141 		"/>
	</g>
	<rect id="_x3C_Slice_x3E__77_" x="252" y="97" class="st1" width="78" height="52"/>
</g>
<g>
	<g>
		<polygon class="st0" points="108.9,89.2 108.9,89.2 75.9,31.6 77.4,28.4 82.4,30.8 115.1,88 113.5,91.4 		"/>
	</g>
	
		<rect id="_x3C_Slice_x3E__31_" x="64" y="21" transform="matrix(0.4359 -0.9 0.9 0.4359 -3.2324 114.8427)" class="st1" width="52" height="78"/>
</g>
<g>
	<polygon class="st0" points="391.1,94 391.1,88.9 391.1,88.8 333.7,19 331.2,19 331.2,25.9 387.3,94 	"/>
	<rect id="_x3C_Slice_x3E__76_" x="328" class="st1" width="76" height="97"/>
</g>
<g>
	<g>
		<polygon class="st0" points="336.3,141 336.3,141 391.1,103.6 391.1,100 385.7,100 331.2,137.3 331.2,141 		"/>
	</g>
	<rect id="_x3C_Slice_x3E__75_" x="328" y="97" class="st1" width="76" height="52"/>
</g>
</svg>
