<?xml version="1.0" encoding="utf-8"?>
<!-- Generator: Adobe Illustrator 21.0.0, SVG Export Plug-In . SVG Version: 6.00 Build 0)  -->
<svg version="1.1" id="Layer_1" xmlns="http://www.w3.org/2000/svg" xmlns:xlink="http://www.w3.org/1999/xlink" x="0px" y="0px"
	 viewBox="0 0 334 68.6" style="enable-background:new 0 0 334 68.6;" xml:space="preserve">
<style type="text/css">
	.st0{fill:none;stroke:#000000;stroke-miterlimit:10;}
	.st1{fill:#EFEFEF;stroke:#000000;stroke-miterlimit:10;}
</style>
<g>
	<g>
		<path class="st0" d="M48.3,44.7"/>
		<g>
			<polygon class="st1" points="88.7,68.1 88.7,68.1 121.4,47 121.4,44.7 115.4,44.7 85.3,63.6 85.3,67.6 			"/>
		</g>
		<g>
			<polygon class="st1" points="88.7,68.1 88.7,68.1 121.4,47 121.4,44.7 115.4,44.7 85.3,63.6 85.3,67.6 			"/>
		</g>
		<polygon class="st1" points="121.4,41.6 121.4,39 121.4,39 86.7,0.5 85.3,0.5 85.3,7.1 116.3,41.6 		"/>
		<polygon class="st1" points="121.3,41.7 121.3,39.1 121.3,39.1 86.6,0.6 85.2,0.6 85.2,7.1 116.2,41.7 		"/>
		<g>
			<polygon class="st1" points="146,68.1 146,68.1 178.8,47 178.8,44.7 172.7,44.7 142.7,63.6 142.7,67.6 			"/>
		</g>
		<polygon class="st1" points="178.6,41.7 178.6,39.1 178.6,39.1 143.9,0.6 142.5,0.6 142.5,7.1 173.5,41.7 		"/>
		<g>
			<polygon class="st1" points="78.4,68.1 78.4,68.1 45.6,47 45.6,44.7 51.7,44.7 81.7,63.6 81.7,67.6 			"/>
		</g>
		<g>
			<polygon class="st1" points="33.2,68.1 33.2,68.1 0.5,47 0.5,44.7 6.5,44.7 36.5,63.6 36.5,67.6 			"/>
		</g>
		<polygon class="st1" points="45.8,41.7 45.8,39.1 45.8,39.1 80.4,0.6 81.8,0.6 81.8,7.1 50.9,41.7 		"/>
		<g>
			<polygon class="st1" points="246.9,68.1 246.8,68.1 214.1,47 214.1,44.7 220.2,44.7 250.2,63.6 250.2,67.6 			"/>
		</g>
		<polygon class="st1" points="214.2,41.7 214.2,39.1 214.3,39.1 248.9,0.6 250.3,0.6 250.3,7.1 219.4,41.7 		"/>
		<g>
			<polygon class="st1" points="330.1,68.1 330.1,68.1 297.3,47 297.3,44.7 303.4,44.7 333.4,63.6 333.4,67.6 			"/>
		</g>
		<polygon class="st1" points="297.5,41.7 297.5,39.1 297.5,39.1 332.2,0.6 333.5,0.6 333.5,7.1 302.6,41.7 		"/>
		<polygon class="st1" points="198.3,8.6 195.1,7.4 192.9,10.1 192.9,40.5 195.1,41.6 198.2,39.5 198.2,39.5 		"/>
		<polygon class="st1" points="5.9,8.6 2.8,7.4 0.6,10.1 0.5,40.5 2.7,41.6 5.9,39.5 5.9,39.5 		"/>
		<polygon class="st1" points="139.6,46 137,44.8 134.7,47.4 134.7,62.2 136.9,63.3 139.5,61.2 139.5,61.1 		"/>
		<polygon class="st1" points="198.2,46 195.1,44.8 192.9,47.4 192.9,62.2 195.1,63.3 198.2,61.2 198.2,61.1 		"/>
		<polygon class="st1" points="280.5,8.6 277.4,7.4 275.1,10.1 275.1,40.5 277.3,41.6 280.4,39.5 280.4,39.5 		"/>
		<polygon class="st1" points="280.5,46 277.3,44.8 275.1,47.4 275.1,62.2 277.3,63.3 280.4,61.2 280.4,61.1 		"/>
		<polygon class="st1" points="258.1,46 255,44.8 252.8,47.4 252.8,62.2 255,63.3 258.1,61.2 258.1,61.1 		"/>
		<polygon class="st1" points="139.9,46 136.8,44.8 134.5,47.4 134.5,62.2 136.7,63.3 139.9,61.2 139.9,61.1 		"/>
	</g>
</g>
</svg>
