<?xml version="1.0" encoding="utf-8"?>
<!-- Generator: Adobe Illustrator 21.0.0, SVG Export Plug-In . SVG Version: 6.00 Build 0)  -->
<svg version="1.1" id="Layer_1" xmlns="http://www.w3.org/2000/svg" xmlns:xlink="http://www.w3.org/1999/xlink" x="0px" y="0px"
	 viewBox="0 0 401 108" style="enable-background:new 0 0 401 108;" xml:space="preserve">
<style type="text/css">
	.st0{fill:#1A1A1A;}
	.st1{fill:none;stroke:#000000;stroke-miterlimit:10;}
	.st2{fill:#EFEFEF;stroke:#000000;stroke-miterlimit:10;}
</style>
<g>
	<path class="st0" d="M33,107.5C15.1,107.5,0.5,92.9,0.5,75V33C0.5,15.1,15.1,0.5,33,0.5h335c17.9,0,32.5,14.6,32.5,32.5v42
		c0,17.9-14.6,32.5-32.5,32.5H33z"/>
	<path d="M368,1c17.6,0,32,14.4,32,32v42c0,17.6-14.4,32-32,32H33C15.4,107,1,92.6,1,75V33C1,15.4,15.4,1,33,1H368 M368,0H33
		C14.9,0,0,14.9,0,33v42c0,18.1,14.9,33,33,33h335c18.2,0,33-14.9,33-33V33C401,14.9,386.2,0,368,0L368,0z"/>
</g>
<g>
	<g>
		<path class="st1" d="M81.8,64.4"/>
		<g>
			<polygon class="st2" points="122.2,87.8 122.2,87.8 154.9,66.7 154.9,64.4 148.9,64.4 118.8,83.3 118.8,87.3 			"/>
		</g>
		<g>
			<polygon class="st2" points="122.2,87.8 122.2,87.8 154.9,66.7 154.9,64.4 148.9,64.4 118.8,83.3 118.8,87.3 			"/>
		</g>
		<polygon class="st2" points="154.9,61.3 154.9,58.7 154.9,58.7 120.2,20.2 118.8,20.2 118.8,26.8 149.8,61.3 		"/>
		<polygon class="st2" points="154.8,61.4 154.8,58.8 154.8,58.8 120.1,20.3 118.7,20.3 118.7,26.8 149.7,61.4 		"/>
		<g>
			<polygon class="st2" points="179.5,87.8 179.5,87.8 212.3,66.7 212.3,64.4 206.2,64.4 176.2,83.3 176.2,87.3 			"/>
		</g>
		<polygon class="st2" points="212.1,61.4 212.1,58.8 212.1,58.8 177.4,20.3 176,20.3 176,26.8 207,61.4 		"/>
		<g>
			<polygon class="st2" points="111.9,87.8 111.9,87.8 79.1,66.7 79.1,64.4 85.2,64.4 115.2,83.3 115.2,87.3 			"/>
		</g>
		<g>
			<polygon class="st2" points="66.7,87.8 66.7,87.8 34,66.7 34,64.4 40,64.4 70,83.3 70,87.3 			"/>
		</g>
		<polygon class="st2" points="79.3,61.4 79.3,58.8 79.3,58.8 113.9,20.3 115.3,20.3 115.3,26.8 84.4,61.4 		"/>
		<g>
			<polygon class="st2" points="280.4,87.8 280.3,87.8 247.6,66.7 247.6,64.4 253.7,64.4 283.7,83.3 283.7,87.3 			"/>
		</g>
		<polygon class="st2" points="247.7,61.4 247.7,58.8 247.8,58.8 282.4,20.3 283.8,20.3 283.8,26.8 252.9,61.4 		"/>
		<g>
			<polygon class="st2" points="363.6,87.8 363.6,87.8 330.8,66.7 330.8,64.4 336.9,64.4 366.9,83.3 366.9,87.3 			"/>
		</g>
		<polygon class="st2" points="331,61.4 331,58.8 331,58.8 365.7,20.3 367,20.3 367,26.8 336.1,61.4 		"/>
		<polygon class="st2" points="231.8,28.3 228.6,27.1 226.4,29.8 226.4,60.2 228.6,61.3 231.7,59.2 231.7,59.2 		"/>
		<polygon class="st2" points="39.4,28.3 36.3,27.1 34.1,29.8 34,60.2 36.2,61.3 39.4,59.2 39.4,59.2 		"/>
		<polygon class="st2" points="173.1,65.7 170.5,64.5 168.2,67.1 168.2,81.9 170.4,83 173,80.9 173,80.8 		"/>
		<polygon class="st2" points="231.7,65.7 228.6,64.5 226.4,67.1 226.4,81.9 228.6,83 231.7,80.9 231.7,80.8 		"/>
		<polygon class="st2" points="314,28.3 310.9,27.1 308.6,29.8 308.6,60.2 310.8,61.3 313.9,59.2 313.9,59.2 		"/>
		<polygon class="st2" points="314,65.7 310.8,64.5 308.6,67.1 308.6,81.9 310.8,83 313.9,80.9 313.9,80.8 		"/>
		<polygon class="st2" points="291.6,65.7 288.5,64.5 286.3,67.1 286.3,81.9 288.5,83 291.6,80.9 291.6,80.8 		"/>
		<polygon class="st2" points="173.4,65.7 170.3,64.5 168,67.1 168,81.9 170.2,83 173.4,80.9 173.4,80.8 		"/>
	</g>
</g>
</svg>
